<?xml version="1.0" standalone="no"?>
<!DOCTYPE svg PUBLIC "-//W3C//DTD SVG 20010904//EN"
 "http://www.w3.org/TR/2001/REC-SVG-20010904/DTD/svg10.dtd">
<svg version="1.0" xmlns="http://www.w3.org/2000/svg"
 width="905.000000pt" height="1280.000000pt" viewBox="0 0 905.000000 1280.000000"
 preserveAspectRatio="xMidYMid meet">
<g transform="translate(0.000000,1280.000000) scale(0.100000,-0.100000)"
fill="#000000" stroke="none">
<path d="M2367 11643 c-3 -4 -28 -80 -56 -168 -28 -88 -55 -167 -61 -175 -12
-18 -4 -30 -117 164 -48 82 -89 144 -91 137 -2 -7 4 -89 13 -182 11 -101 14
-174 9 -179 -5 -5 -71 36 -159 100 -82 60 -152 107 -154 105 -2 -3 37 -76 88
-163 50 -88 91 -162 91 -166 0 -12 -52 -5 -211 29 -89 20 -164 34 -166 31 -2
-2 59 -50 136 -106 140 -102 168 -126 159 -136 -3 -2 -79 -20 -169 -39 -90
-20 -173 -39 -183 -43 -14 -6 26 -18 135 -41 207 -44 212 -45 216 -58 2 -6
-64 -60 -146 -119 -82 -60 -144 -110 -136 -112 8 -2 89 13 181 33 97 21 171
32 176 27 5 -5 -29 -75 -82 -167 -50 -86 -89 -159 -86 -162 3 -3 70 43 150
101 80 58 150 106 156 106 13 0 13 -22 -6 -189 -23 -217 -23 -217 82 -34 51
87 98 158 105 158 8 0 34 -64 69 -172 52 -163 70 -206 70 -171 0 22 29 296 36
336 2 17 9 32 14 32 5 0 65 -61 132 -136 68 -74 124 -129 126 -122 1 7 -20 80
-48 163 -44 132 -59 195 -46 195 2 0 80 -34 172 -75 92 -41 169 -73 172 -70 2
2 -50 64 -117 138 -66 74 -121 140 -121 146 0 8 55 11 185 11 102 0 185 4 185
9 0 5 -74 42 -165 82 -91 40 -165 78 -165 85 0 6 57 38 128 69 70 32 147 67
172 79 l45 21 -192 3 c-145 2 -193 6 -193 15 0 7 54 72 120 146 66 74 118 136
116 138 -2 3 -76 -27 -164 -66 -88 -39 -165 -71 -171 -71 -18 0 -13 26 39 188
28 85 49 160 47 165 -1 5 -58 -52 -126 -127 -68 -75 -127 -136 -132 -136 -10
0 -15 28 -35 220 -8 85 -17 156 -19 158 -2 2 -5 0 -8 -5z"/>
<path d="M6437 11304 c-125 -98 -197 -250 -197 -419 0 -236 157 -444 395 -522
115 -37 265 -37 380 0 83 27 181 85 225 132 l25 27 -50 -8 c-349 -56 -682 160
-751 486 -18 87 -14 186 11 273 9 32 15 60 13 63 -3 2 -25 -12 -51 -32z"/>
<path d="M4515 10225 c-27 -70 -46 -105 -57 -105 -7 0 -29 26 -48 58 l-35 57
-9 -62 c-5 -35 -13 -63 -18 -63 -5 0 -24 11 -41 24 -38 27 -89 46 -128 46
l-28 0 30 -56 c16 -31 27 -59 24 -63 -2 -5 -50 -6 -105 -3 l-101 5 40 -58 c50
-71 54 -99 14 -88 -34 10 -122 10 -144 1 -14 -5 -7 -17 35 -60 28 -29 79 -90
113 -134 74 -97 138 -156 204 -186 27 -13 48 -29 46 -36 -1 -7 -28 -23 -59
-36 -73 -30 -141 -80 -217 -161 -105 -112 -138 -203 -148 -402 -3 -72 -10
-123 -16 -123 -6 0 -3 -8 5 -17 33 -37 66 -200 70 -343 3 -75 7 -141 11 -147
4 -6 19 -51 33 -100 14 -48 34 -108 45 -133 l20 -45 -27 -165 c-26 -161 -28
-167 -72 -232 -24 -37 -57 -78 -71 -92 -14 -13 -84 -50 -155 -80 -72 -31 -164
-78 -205 -105 -99 -65 -101 -65 -277 -101 -300 -60 -478 -132 -562 -226 -74
-83 -168 -266 -209 -409 -22 -73 -28 -400 -13 -631 l12 -191 -31 -99 c-81
-262 -98 -378 -111 -771 -9 -294 -12 -309 -93 -437 -104 -166 -161 -343 -177
-551 -10 -126 -18 -155 -103 -377 -24 -64 -55 -158 -67 -210 -13 -51 -27 -98
-32 -104 -5 -7 -115 -76 -245 -155 -281 -171 -364 -243 -425 -369 -20 -41 -39
-91 -42 -111 -4 -20 -18 -49 -31 -63 -30 -33 -31 -46 -5 -79 12 -14 24 -53 30
-93 19 -133 49 -215 105 -288 19 -25 35 -51 35 -56 0 -6 -11 -33 -25 -60 -46
-91 -42 -148 11 -164 28 -8 75 31 110 90 14 24 30 44 35 44 15 0 69 -30 69
-38 0 -4 -16 -48 -36 -97 -55 -139 -47 -185 32 -185 42 0 62 25 104 132 40
101 45 108 81 108 34 0 37 -15 14 -80 -28 -80 -13 -140 35 -140 38 0 69 43
102 140 30 86 35 95 58 95 23 0 25 -3 22 -43 -3 -59 11 -82 52 -82 42 0 56 16
81 94 l20 61 42 3 c24 2 107 -9 185 -24 287 -54 629 -50 1003 11 247 40 286
49 470 107 164 51 142 53 532 -51 113 -31 414 -72 568 -78 106 -4 158 -2 215
11 109 22 539 24 715 3 248 -31 444 -40 572 -28 140 14 388 55 457 76 52 16
163 20 183 7 7 -5 23 -44 35 -87 26 -89 51 -114 103 -101 l28 7 -7 84 c-6 86
1 108 29 85 7 -6 32 -65 55 -130 24 -66 50 -126 60 -135 11 -10 31 -15 51 -13
53 5 59 37 26 151 -34 119 -35 137 -2 137 27 0 22 8 101 -180 24 -58 53 -113
65 -122 28 -24 72 -23 94 2 24 27 17 71 -34 199 -22 58 -41 111 -41 118 0 17
37 35 59 28 10 -3 30 -28 46 -56 41 -77 82 -119 115 -119 62 0 70 60 21 167
l-34 72 32 36 c38 43 59 83 103 200 53 137 68 208 68 326 -1 200 -38 298 -143
376 -77 57 -118 75 -352 157 -191 67 -268 103 -283 134 -5 9 -17 51 -27 92 -9
41 -38 127 -62 190 -79 201 -91 245 -98 342 -15 211 -69 393 -162 550 -107
181 -109 193 -118 538 -7 315 -25 440 -101 685 l-36 120 11 155 c17 232 14
534 -5 628 -32 159 -152 393 -244 475 -89 81 -283 151 -573 206 -128 25 -149
33 -248 98 -42 27 -132 73 -200 102 -68 29 -135 63 -148 75 -47 42 -120 165
-126 214 -4 26 -15 97 -27 159 l-20 112 25 63 c14 35 35 96 46 137 11 40 25
79 32 87 6 7 9 17 6 21 -3 4 -2 69 2 143 8 141 39 289 69 323 8 9 11 17 5 17
-6 0 -13 51 -16 123 -10 200 -46 296 -151 405 -77 81 -142 129 -214 158 -31
12 -58 27 -60 32 -1 5 22 24 52 40 78 45 118 83 218 209 48 61 102 123 119
137 27 23 29 27 12 33 -24 10 -111 10 -145 0 -41 -11 -37 17 13 88 l40 58
-101 -5 c-55 -3 -103 -2 -105 3 -3 4 8 32 24 63 l30 56 -28 0 c-43 0 -92 -19
-134 -52 -21 -17 -41 -27 -44 -24 -3 3 -9 34 -12 68 l-7 63 -37 -58 c-21 -32
-44 -56 -50 -54 -13 4 -29 31 -51 87 -12 31 -14 33 -21 15z m-177 -819 c11
-24 25 -47 31 -50 19 -12 12 -41 -15 -67 -14 -13 -43 -50 -65 -83 -30 -45 -39
-68 -39 -101 0 -58 6 -71 46 -96 37 -22 44 -52 21 -83 -12 -17 -18 -17 -53 -6
-66 21 -152 68 -168 92 -12 17 -16 49 -16 141 0 128 7 152 57 200 31 28 149
96 170 97 7 0 21 -20 31 -44z m483 3 c33 -18 77 -51 99 -75 l40 -44 0 -134 c0
-157 -1 -159 -105 -206 -88 -40 -112 -44 -125 -21 -18 34 -11 53 30 91 31 29
40 44 40 70 0 46 -30 104 -90 174 -48 55 -50 60 -35 80 8 11 24 38 35 59 11
20 28 37 36 37 9 0 43 -14 75 -31z m-36 -3277 c-23 -23 -34 84 -12 121 11 19
12 14 15 -47 2 -37 0 -71 -3 -74z m-1503 -716 c47 -154 131 -382 166 -451 19
-38 27 -74 33 -150 5 -62 18 -130 34 -180 34 -102 30 -166 -21 -301 -44 -119
-150 -354 -167 -371 -18 -19 -560 -214 -569 -205 -4 4 14 59 41 122 103 243
116 305 130 615 l8 170 46 112 c25 62 59 138 76 170 57 113 128 363 146 513
15 126 27 119 77 -44z m2552 107 c3 -16 10 -59 16 -98 24 -158 84 -362 136
-467 46 -92 104 -233 120 -293 8 -27 14 -90 14 -140 0 -113 16 -304 31 -370 6
-27 36 -112 65 -187 59 -149 64 -174 37 -163 -144 55 -342 119 -424 135 -57
12 -107 24 -111 28 -12 12 -124 265 -162 365 -53 141 -56 191 -18 318 17 60
33 139 36 186 4 59 12 96 29 130 34 66 117 292 162 438 20 66 38 126 41 133 6
21 22 13 28 -15z m-1036 -2096 c2 -10 1 -29 -2 -43 -6 -24 -8 -24 -116 -24
l-110 0 0 29 c0 28 3 30 48 36 26 4 65 10 87 15 59 12 89 8 93 -13z m140 -66
c11 -6 10 -11 -3 -25 -9 -9 -23 -16 -31 -16 -17 0 -19 36 -1 43 18 8 21 8 35
-2z m-884 -713 c50 -70 -11 -138 -123 -138 -28 0 -112 -9 -188 -21 -76 -11
-194 -21 -263 -22 -113 -2 -130 0 -178 22 -59 27 -62 43 -11 52 19 4 106 28
194 53 199 58 288 74 437 75 110 1 118 0 132 -21z m1865 -17 c36 -9 66 -21 68
-27 4 -13 -128 -114 -191 -146 -22 -11 -80 -30 -130 -43 -50 -13 -130 -34
-178 -49 -94 -27 -246 -46 -362 -45 -127 1 -135 21 -20 53 34 9 117 23 185 31
145 17 317 70 359 110 15 14 40 29 56 34 28 7 39 22 63 84 12 31 18 31 150 -2z
m-4323 -438 c-10 -10 -19 5 -10 18 6 11 8 11 12 0 2 -7 1 -15 -2 -18z m194
-43 c0 -5 -5 -10 -11 -10 -5 0 -7 5 -4 10 3 6 8 10 11 10 2 0 4 -4 4 -10z"/>
</g>
</svg>
