<?xml version="1.0" standalone="no"?>
<!DOCTYPE svg PUBLIC "-//W3C//DTD SVG 20010904//EN"
 "http://www.w3.org/TR/2001/REC-SVG-20010904/DTD/svg10.dtd">
<svg version="1.0" xmlns="http://www.w3.org/2000/svg"
 width="974.000000pt" height="1280.000000pt" viewBox="0 0 974.000000 1280.000000"
 preserveAspectRatio="xMidYMid meet">
<metadata>
Created by potrace 1.15, written by Peter Selinger 2001-2017
</metadata>
<g transform="translate(0.000000,1280.000000) scale(0.100000,-0.100000)"
fill="#000000" stroke="none">
<path d="M0 9235 l0 -3566 113 -111 c129 -128 277 -230 607 -418 411 -235 785
-565 924 -815 79 -142 126 -297 126 -412 0 -22 5 -44 12 -51 19 -19 56 -14 79
9 20 20 21 29 16 133 -3 72 -14 145 -31 208 -31 118 -110 304 -172 406 -192
316 -562 666 -955 904 -154 94 -252 169 -357 276 -134 137 -201 242 -255 402
-40 122 -50 185 -43 285 12 158 55 355 56 252 0 -82 88 -290 197 -469 117
-193 359 -437 552 -558 262 -163 519 -210 856 -155 169 27 395 138 518 254
172 163 270 379 266 591 -2 86 -10 104 -47 108 -28 3 -35 -2 -66 -51 -19 -30
-59 -101 -89 -159 -97 -188 -186 -293 -334 -391 -86 -57 -135 -79 -243 -106
-147 -37 -284 -26 -470 37 -117 40 -198 83 -301 158 -160 117 -222 206 -298
425 -53 152 -64 218 -65 384 -1 293 56 544 204 905 26 63 50 124 54 134 3 10
9 16 12 13 3 -3 -12 -61 -34 -129 -54 -167 -77 -264 -107 -459 -29 -192 -31
-256 -10 -434 18 -152 81 -383 126 -461 78 -137 173 -228 304 -292 315 -154
649 -111 871 112 137 137 194 270 194 450 0 116 -14 169 -77 289 -51 96 -109
151 -213 201 -84 40 -86 40 -200 40 -103 -1 -121 -4 -173 -28 -87 -40 -158
-98 -187 -153 -34 -64 -35 -181 -3 -233 59 -95 142 -140 260 -140 159 0 290
128 228 223 -32 49 -66 44 -95 -13 -28 -55 -64 -64 -128 -31 -52 27 -74 54
-70 88 6 53 132 90 213 63 126 -41 203 -217 161 -363 -22 -76 -111 -174 -182
-200 -74 -28 -206 -33 -279 -13 -179 52 -281 161 -355 381 -40 119 -54 248
-47 434 5 134 11 175 41 291 77 296 173 531 319 777 114 193 193 297 467 618
122 143 285 333 362 423 137 160 278 335 297 369 5 10 12 15 15 12 6 -5 -97
-233 -165 -364 -261 -508 -369 -763 -439 -1042 -40 -160 -40 -164 -40 -348 0
-220 15 -295 85 -434 47 -94 76 -131 103 -131 50 1 58 45 24 145 -36 105 -44
185 -39 362 5 195 22 271 111 505 92 242 124 304 303 576 104 158 145 208 378
462 88 96 185 204 216 240 205 239 473 708 529 925 40 157 40 -8 0 -186 -61
-267 -148 -497 -254 -672 -91 -149 -281 -361 -410 -456 -65 -49 -90 -82 -81
-110 16 -51 90 -26 260 87 121 80 271 230 354 352 62 91 181 310 219 400 72
174 178 573 198 750 18 160 18 400 0 516 -23 151 -97 347 -175 464 -23 34 -40
64 -38 67 10 9 111 -116 190 -234 113 -170 166 -276 233 -463 118 -328 124
-370 124 -845 1 -352 0 -358 -25 -451 -14 -51 -48 -148 -76 -216 -117 -284
-131 -321 -144 -394 -24 -123 -20 -174 19 -252 40 -79 53 -92 126 -127 54 -26
45 -29 -30 -10 -41 10 -64 -14 -56 -59 4 -20 16 -46 27 -57 23 -23 24 -29 4
-29 -33 0 -39 -86 -7 -92 11 -2 17 -15 17 -41 1 -21 19 -72 43 -120 90 -178
276 -384 555 -611 77 -63 137 -154 150 -229 10 -58 9 -68 -12 -110 -25 -52
-34 -58 -216 -151 -149 -76 -182 -103 -221 -183 -57 -117 -26 -219 99 -321 87
-71 134 -119 154 -156 23 -43 13 -114 -25 -173 -37 -58 -89 -90 -245 -153
l-112 -45 -3 -45 c-3 -43 -1 -46 40 -72 24 -15 62 -43 85 -63 38 -32 41 -39
37 -73 -8 -63 -42 -114 -102 -157 -105 -74 -151 -123 -167 -178 -31 -105 -29
-111 101 -356 53 -98 15 -191 -101 -249 -68 -34 -123 -44 -254 -44 -150 0
-193 10 -521 117 -373 122 -364 120 -595 120 -240 0 -275 -9 -355 -90 -61 -62
-71 -93 -100 -316 -26 -208 -44 -326 -85 -562 -55 -315 -69 -464 -69 -722 -1
-401 40 -543 205 -719 76 -82 127 -120 249 -184 220 -118 521 -209 860 -262
74 -12 176 -28 225 -36 102 -16 413 -40 645 -49 199 -8 439 -32 512 -51 32 -8
68 -12 82 -8 24 6 51 48 41 64 -9 15 -137 101 -182 123 -45 22 -59 43 -20 31
63 -19 263 -155 422 -285 129 -106 341 -322 517 -529 398 -465 723 -725 1138
-910 293 -131 717 -221 970 -206 354 20 444 51 706 242 132 97 158 122 358
342 289 319 291 323 264 350 -28 28 -73 13 -146 -50 -18 -16 -69 -46 -113 -69
-197 -99 -356 -129 -678 -129 -322 0 -513 35 -791 142 -148 58 -369 187 -495
291 -304 248 -512 550 -643 927 -77 225 -118 431 -202 1020 -37 261 -74 439
-132 635 -36 122 -109 298 -149 358 -59 89 -30 64 45 -38 82 -111 149 -239
225 -432 104 -261 177 -526 281 -1008 95 -442 103 -468 210 -690 144 -301 337
-511 690 -753 133 -91 326 -172 560 -234 106 -29 130 -31 320 -35 173 -4 226
-1 338 16 209 32 405 119 577 256 39 30 97 76 130 100 172 130 203 165 178
204 -17 28 -42 24 -130 -19 -182 -88 -328 -124 -563 -136 -364 -19 -892 112
-1151 286 -404 272 -640 679 -774 1340 -72 355 -110 681 -120 1045 -5 203 -23
440 -41 545 -31 182 -127 412 -246 587 -15 23 -28 44 -28 47 0 33 132 -129
175 -214 104 -207 149 -415 220 -1015 31 -264 66 -496 106 -705 94 -490 123
-582 252 -805 52 -90 277 -321 444 -456 301 -242 643 -335 987 -269 284 55
464 175 654 436 86 117 179 353 207 524 36 214 1 410 -110 610 -78 140 -161
241 -263 318 -173 132 -294 176 -482 176 -143 0 -210 -17 -343 -86 -198 -104
-317 -280 -317 -471 0 -160 103 -351 167 -311 26 16 27 57 4 127 -41 121 -20
230 66 342 30 39 59 61 119 92 102 52 164 67 251 58 145 -15 253 -61 359 -156
152 -137 226 -309 228 -529 0 -157 -29 -241 -147 -413 -144 -211 -348 -318
-609 -318 -242 -1 -485 113 -686 321 -237 245 -292 489 -251 1120 11 162 20
351 20 420 0 304 -82 801 -167 1003 -14 34 -36 93 -49 130 -41 115 -158 347
-226 447 -35 52 -68 101 -73 110 -42 68 201 -213 287 -333 112 -156 251 -429
306 -600 16 -51 37 -143 45 -203 26 -183 38 -534 31 -859 -13 -561 27 -833
156 -1085 65 -126 133 -208 227 -275 101 -72 186 -100 307 -99 159 0 342 79
459 198 81 83 107 122 147 223 29 70 30 83 27 182 -3 96 -6 113 -35 172 -85
172 -237 272 -412 270 -67 -1 -94 -6 -135 -25 -73 -35 -81 -44 -121 -127 -30
-62 -35 -84 -35 -142 0 -58 5 -78 31 -128 43 -80 92 -122 174 -149 97 -32 144
-25 201 31 38 37 44 49 44 84 0 23 -5 46 -12 53 -19 19 -63 14 -83 -8 -23 -25
-51 -25 -91 -1 -29 18 -64 74 -64 103 0 7 9 27 20 45 40 66 141 67 214 3 47
-41 60 -78 54 -153 -12 -142 -142 -297 -276 -328 -50 -11 -153 6 -211 35 -26
13 -80 59 -120 101 -85 90 -141 196 -166 315 -35 165 -28 597 15 980 35 313
23 743 -25 923 -23 84 1 50 38 -56 47 -131 56 -176 57 -262 0 -38 3 -80 6 -92
11 -42 77 -42 90 0 10 33 12 122 3 242 -32 439 -211 989 -460 1411 -145 246
-353 515 -533 687 -100 97 -83 90 54 -22 145 -119 224 -195 359 -346 162 -181
267 -328 398 -560 88 -154 184 -454 204 -635 14 -127 20 -140 63 -140 54 0 61
18 59 139 -13 604 -104 946 -342 1290 -160 232 -307 392 -526 574 -293 243
-521 377 -1057 618 -406 183 -549 263 -748 418 -194 150 -347 332 -418 496
-60 140 -134 406 -117 423 5 5 11 -8 65 -158 75 -209 188 -399 309 -521 134
-135 347 -255 654 -368 72 -27 220 -84 327 -126 650 -259 993 -453 1326 -752
263 -236 363 -398 490 -793 36 -113 83 -261 105 -330 42 -131 130 -317 203
-429 49 -74 194 -235 275 -304 121 -104 275 -155 430 -144 48 4 102 12 121 18
65 23 149 80 235 161 109 102 182 220 221 358 23 85 26 106 20 198 -7 114 -28
189 -84 297 -97 184 -209 275 -340 275 -104 0 -176 -50 -144 -101 7 -10 12
-20 12 -21 0 -2 -24 -1 -54 0 -88 6 -143 -34 -178 -127 -22 -60 -22 -94 1
-139 28 -55 99 -84 154 -63 22 9 27 17 27 45 0 18 -6 39 -14 45 -18 15 -27 49
-15 57 17 10 49 -7 63 -34 19 -36 3 -75 -49 -121 -89 -78 -186 -82 -251 -9
-65 72 -77 205 -43 493 18 152 23 255 24 430 0 224 -1 233 -33 373 -32 143
-42 167 -125 302 -130 212 -378 430 -691 609 -394 226 -787 320 -1717 411 -52
5 -167 27 -255 50 -179 46 -348 120 -466 205 -68 49 -87 76 -26 36 91 -58 382
-176 511 -206 97 -23 219 -19 300 10 116 40 173 81 240 170 78 104 91 134 123
290 22 109 25 145 20 220 -13 170 -47 280 -133 422 -115 191 -322 357 -498
399 -93 22 -245 23 -312 2 -115 -36 -198 -106 -245 -206 -27 -57 -30 -70 -26
-150 l3 -87 66 -90 c36 -50 73 -91 81 -93 8 -2 26 6 39 17 23 19 23 20 10 77
-8 33 -14 74 -14 92 -1 48 48 110 118 152 56 33 65 35 145 34 78 0 90 -3 156
-38 182 -95 331 -331 310 -488 -15 -114 -106 -234 -230 -307 -139 -82 -367
-112 -474 -62 -29 14 -52 28 -52 33 0 11 2 10 45 -8 29 -12 64 -15 149 -12
128 4 198 27 284 94 139 107 169 342 64 502 -54 83 -120 125 -213 137 -49 6
-65 3 -118 -20 -48 -22 -67 -38 -95 -79 -19 -28 -40 -72 -46 -98 -11 -52 -4
-130 16 -168 27 -54 95 -100 147 -100 35 0 95 19 112 36 38 38 0 98 -56 87
-24 -4 -30 -1 -41 21 -10 23 -9 33 6 60 31 58 87 71 133 32 25 -21 28 -31 27
-78 -3 -122 -39 -180 -139 -228 -80 -38 -135 -38 -234 -1 -129 49 -247 187
-306 360 -24 72 -31 145 -40 411 -8 247 -25 419 -46 469 -23 52 -22 51 -6 51
8 0 24 -11 37 -25 33 -35 165 -111 236 -135 61 -21 328 -60 412 -60 89 0 241
-29 324 -62 117 -46 268 -149 359 -244 124 -131 232 -330 286 -525 25 -89 25
-403 1 -466 -24 -62 -12 -97 34 -101 33 -3 38 0 63 45 16 27 42 108 61 187 30
123 34 153 34 277 0 198 -32 334 -120 509 -70 139 -158 256 -239 315 -42 31
-56 54 -21 35 42 -23 162 -134 244 -225 69 -78 95 -117 149 -227 78 -158 113
-272 131 -430 16 -133 5 -267 -33 -431 -12 -48 -21 -96 -21 -107 0 -24 35 -44
65 -36 29 7 45 42 88 192 51 176 61 257 54 473 -5 175 -8 193 -40 307 -38 127
-105 289 -152 364 -53 85 -193 246 -261 302 -147 118 -324 204 -533 258 -81
20 -292 40 -438 40 -167 0 -449 104 -661 243 -54 35 -212 144 -352 243 -533
376 -841 573 -1000 639 -36 15 -117 50 -180 78 -233 101 -684 235 -950 281
-52 9 -119 21 -149 26 -33 6 -586 10 -1398 10 l-1343 0 0 -3565z m6230 -299
c229 -50 782 -186 875 -215 82 -26 207 -73 285 -109 79 -35 279 -157 375 -227
94 -69 247 -231 333 -352 256 -358 368 -627 476 -1145 51 -243 71 -294 183
-486 67 -113 98 -150 166 -195 75 -50 123 -61 200 -46 57 11 67 18 130 80 94
94 120 153 125 285 4 92 2 105 -21 151 -34 66 -70 108 -107 123 -45 19 -36 28
19 19 145 -23 221 -123 221 -292 0 -273 -221 -567 -427 -567 -132 0 -213 45
-305 168 -85 115 -136 268 -173 522 -52 358 -107 544 -237 803 -177 355 -403
626 -672 807 -82 55 -410 219 -526 262 -58 22 -234 85 -635 225 -250 88 -560
233 -497 233 4 0 99 -20 212 -44z"/>
<path d="M0 4757 c0 -664 2 -806 13 -810 8 -3 71 -51 141 -106 170 -136 402
-378 545 -569 54 -72 215 -337 261 -429 44 -90 156 -377 175 -448 30 -116 45
-363 45 -754 0 -645 47 -913 203 -1163 109 -176 252 -248 487 -248 157 0 256
20 350 72 155 85 234 167 310 321 53 108 62 161 40 236 -11 38 -24 51 -56 51
-25 0 -39 -26 -53 -105 -13 -70 -49 -121 -107 -150 -50 -25 -190 -25 -283 -1
-186 48 -298 160 -346 345 -36 138 -38 222 -11 391 14 85 39 220 55 300 47
231 56 335 43 502 -19 245 -96 485 -274 848 -110 226 -160 306 -346 555 -210
280 -526 589 -890 867 -99 76 -72 73 47 -5 61 -40 181 -118 268 -174 165 -106
443 -321 551 -426 75 -73 304 -324 348 -382 39 -51 129 -198 182 -296 86 -159
176 -421 210 -609 52 -282 55 -639 8 -785 -36 -110 -34 -153 6 -168 46 -17 99
128 144 393 24 143 26 179 28 480 l1 325 -42 200 c-24 120 -59 250 -86 325
-52 147 -144 359 -193 447 -52 93 -251 401 -292 453 -110 136 -333 387 -419
470 -182 176 -426 372 -578 465 -76 46 -196 128 -325 223 -33 24 -75 65 -94
91 -72 97 -66 162 -66 -732z"/>
<path d="M0 2958 c0 -763 2 -887 15 -898 57 -48 179 -364 296 -770 82 -284
168 -466 294 -619 76 -94 135 -147 243 -220 165 -110 292 -158 308 -116 14 34
-7 64 -75 109 -141 94 -243 262 -285 471 -38 182 -39 289 -12 625 51 619 29
844 -120 1250 -47 127 -84 207 -136 294 -98 166 -301 468 -346 519 -21 23 -54
67 -73 98 -19 30 -51 75 -71 99 l-38 44 0 -886z"/>
<path d="M5551 1789 c-23 -9 -23 -10 -15 -102 13 -136 6 -392 -16 -557 -50
-380 -70 -574 -63 -581 5 -5 112 -43 239 -85 250 -82 627 -184 769 -208 158
-26 395 -46 560 -46 350 0 710 70 739 145 9 24 -40 69 -67 61 -184 -52 -433
-69 -609 -42 -147 23 -270 58 -408 115 -213 88 -363 192 -549 381 -150 152
-210 251 -344 570 -92 219 -124 282 -162 324 -35 39 -38 40 -74 25z"/>
<path d="M0 853 l0 -853 254 0 254 0 12 30 c7 16 10 37 6 45 -3 9 -17 100 -31
203 -14 103 -36 228 -50 277 -14 50 -34 126 -45 170 -47 186 -76 278 -131 415
-86 216 -102 251 -213 460 l-55 105 -1 -852z"/>
</g>
</svg>
