<?xml version="1.0" standalone="no"?>
<!DOCTYPE svg PUBLIC "-//W3C//DTD SVG 20010904//EN"
 "http://www.w3.org/TR/2001/REC-SVG-20010904/DTD/svg10.dtd">
<svg version="1.0" xmlns="http://www.w3.org/2000/svg"
 width="724.000000pt" height="1280.000000pt" viewBox="0 0 724.000000 1280.000000"
 preserveAspectRatio="xMidYMid meet">
<g transform="translate(0.000000,1280.000000) scale(0.100000,-0.100000)"
fill="#000000" stroke="none">
<path d="M3688 12788 c-27 -4 -69 -11 -95 -15 l-47 -8 -23 -115 c-37 -187 -99
-462 -188 -830 -46 -190 -88 -385 -95 -435 -21 -166 -79 -299 -189 -437 -114
-144 -326 -320 -532 -442 -108 -65 -153 -99 -253 -195 -112 -108 -545 -491
-606 -536 -29 -22 -326 -302 -430 -405 -209 -209 -230 -515 -84 -1239 59 -292
111 -495 184 -713 73 -220 129 -354 279 -667 65 -135 135 -288 155 -339 68
-173 116 -408 116 -568 0 -281 43 -580 185 -1289 161 -800 201 -1045 226
-1385 18 -243 -1 -499 -48 -645 -23 -71 -71 -165 -88 -172 -22 -8 -44 9 -236
184 -243 220 -309 277 -429 374 -410 330 -703 470 -957 457 -82 -5 -102 -10
-166 -41 -162 -82 -296 -231 -342 -382 -35 -115 -38 -93 41 -423 125 -528 374
-1010 760 -1472 104 -125 367 -394 474 -485 370 -313 715 -482 1113 -543 153
-23 281 -21 487 8 193 27 359 29 1435 19 495 -4 556 -1 770 43 203 41 380 116
530 223 200 143 388 305 624 538 281 278 510 558 665 817 88 144 116 212 116
274 0 36 5 49 25 64 29 23 43 59 91 232 45 161 84 344 84 392 0 54 -36 184
-68 243 -37 68 -149 184 -227 235 -149 97 -299 118 -441 60 -44 -18 -169 -63
-279 -100 -341 -116 -445 -170 -585 -305 -71 -69 -658 -504 -691 -512 -35 -10
-38 19 -13 132 31 146 31 192 -3 258 -23 44 -27 68 -31 152 -5 135 9 236 208
1535 93 608 179 1182 190 1275 53 435 62 476 161 718 212 520 265 655 323 830
185 551 289 1095 326 1703 11 185 7 243 -25 304 -17 34 -251 286 -436 471
-144 144 -414 384 -718 639 -652 548 -696 587 -785 704 -109 143 -162 272
-210 511 -40 200 -165 1028 -177 1172 -5 70 -13 130 -17 133 -4 3 -28 2 -54
-2z m93 -2016 c328 -335 629 -677 948 -1077 214 -268 581 -754 606 -805 10
-19 20 -65 23 -101 4 -59 -3 -93 -66 -320 -39 -140 -101 -364 -137 -498 -84
-310 -110 -376 -199 -508 -97 -146 -399 -561 -496 -682 -90 -113 -124 -135
-215 -135 -68 1 -112 19 -145 61 -20 25 -21 35 -16 100 10 110 52 370 76 467
44 177 86 249 201 342 50 41 83 77 102 112 57 106 81 315 57 502 -18 140 -62
365 -87 440 -76 236 -249 495 -421 634 -103 83 -141 97 -259 95 -80 -2 -112 2
-173 22 -63 20 -94 24 -195 23 -106 0 -128 -4 -189 -27 -226 -88 -479 -354
-579 -607 -63 -161 -65 -181 -55 -655 5 -234 7 -246 93 -430 51 -110 86 -152
164 -194 72 -38 110 -87 152 -194 46 -119 97 -317 115 -441 24 -173 1 -213
-126 -215 -36 -1 -53 5 -82 29 -20 17 -128 144 -240 283 -197 244 -286 344
-340 379 -16 11 -28 30 -32 53 -4 20 -29 80 -56 133 -61 121 -101 241 -135
402 -35 172 -64 256 -161 465 -45 99 -89 204 -98 234 -34 115 -13 237 58 343
19 29 366 431 771 893 660 753 927 1043 961 1044 6 1 85 -74 175 -167z"/>
</g>
</svg>
